<?xml version="1.0" encoding="UTF-8" standalone="no"?>
<!-- Created with Inkscape (http://www.inkscape.org/) -->

<svg
   xmlns:dc="http://purl.org/dc/elements/1.1/"
   xmlns:cc="http://creativecommons.org/ns#"
   xmlns:rdf="http://www.w3.org/1999/02/22-rdf-syntax-ns#"
   xmlns:svg="http://www.w3.org/2000/svg"
   xmlns="http://www.w3.org/2000/svg"
   xmlns:sodipodi="http://sodipodi.sourceforge.net/DTD/sodipodi-0.dtd"
   xmlns:inkscape="http://www.inkscape.org/namespaces/inkscape"
   width="320.6875"
   height="320.65625"
   id="svg6072"
   version="1.1"
   inkscape:version="0.48.0 r9654"
   sodipodi:docname="                            19">
  <defs
     id="defs6074" />
  <sodipodi:namedview
     id="base"
     pagecolor="#ffffff"
     bordercolor="#666666"
     borderopacity="1.0"
     inkscape:pageopacity="0.0"
     inkscape:pageshadow="2"
     inkscape:zoom="0.7"
     inkscape:cx="-69.962652"
     inkscape:cy="295.92659"
     inkscape:document-units="px"
     inkscape:current-layer="1"
     showgrid="false"
     fit-margin-top="0"
     fit-margin-left="0"
     fit-margin-right="0"
     fit-margin-bottom="0"
     inkscape:window-width="1280"
     inkscape:window-height="904"
     inkscape:window-x="-4"
     inkscape:window-y="-4"
     inkscape:window-maximized="1" />
  <metadata
     id="metadata6077">
    <rdf:RDF>
      <cc:Work
         rdf:about="">
        <dc:format>image/svg+xml</dc:format>
        <dc:type
           rdf:resource="http://purl.org/dc/dcmitype/StillImage" />
        <dc:title></dc:title>
      </cc:Work>
    </rdf:RDF>
  </metadata>
  <g
     inkscape:label="Layer 1"
     inkscape:groupmode="layer"
     id="layer1"
     transform="translate(-339.65428,-960.61036)">
    <g
       id="1"
       transform="translate(339.65428,960.54786)">
      <text
         style="font-size:14.99433994px;font-style:normal;font-weight:normal;text-align:start;text-anchor:start;fill:#000000;font-family:Times New Roman"
         y="13.493543"
         x="0"
         xml:space="preserve"
         id="2"> </text>
      <path
         d="m 54.691855,1.9303263 c -29.163991,0 -52.8175625,23.6511827 -52.8175625,52.8122277 l 0,211.286396 c 0,29.16104 23.6535715,52.81223 52.8175625,52.81223 l 211.288995,0 c 29.18273,0 52.8363,-23.65119 52.8363,-52.81223 l 0,-211.286396 c 0,-29.161045 -23.65357,-52.8122277 -52.8363,-52.8122277 z"
         style="fill:#ffffff;stroke:#000000;stroke-width:3.74858499px;stroke-linecap:round;stroke-linejoin:round;stroke-opacity:1;stroke-dasharray:none"
         id="3"
         inkscape:connector-curvature="0" />
      <path
         style="fill:#000000;fill-opacity:1;fill-rule:evenodd;stroke:none"
         d="m 574.9688,1006.125 c -12.1283,35.5252 -43.64258,63.3355 -71.62928,73.0414 l -134.58054,46.6729 c -4.55251,1.5788 -12.94475,-2.8436 -17.68003,-4.9347 -2.13874,-0.9445 -2.10606,-1.9193 -3.98961,0.265 -3.26907,3.7911 5.07666,37.4885 13.3125,36 1.67601,-0.3029 1.4886,-2.885 2.11874,-4.1744 2.95682,-6.0499 3.90299,-10.829 12.89019,-13.397 l 134.52975,-38.4403 c 31.27915,-8.9377 74.98961,6.4379 97.94792,26.61 8.10659,7.1227 12.4036,0.336 14,-7.375 5.31011,-25.6492 -2.77776,-116.853 -37.88839,-121.17415 -4.06475,-0.50026 -7.91405,3.63385 -9.03125,6.90625 z"
         id="4"
         inkscape:connector-curvature="0"
         sodipodi:nodetypes="sssssssssssss"
         transform="translate(-339.65428,-960.54786)" />
      <path
         d="m 260.07682,28.036584 18.1619,-15.480093 -9.55889,26.14374 29.61382,-3.879394 -19.09904,23.23888 34.37452,3.879393 -23.87848,21.289813 24.83437,8.714579 -21.96671,18.403698 23.87849,18.40369 -24.83438,9.67037 22.9226,36.80739 -25.79026,-5.80972"
         style="fill:none;stroke:#000000;stroke-width:3.74900007;stroke-linecap:round;stroke-linejoin:round;stroke-miterlimit:4;stroke-opacity:1;stroke-dasharray:none"
         id="6"
         inkscape:connector-curvature="0" />
      <path
         d="m 190.88181,149.95258 c 26.52112,23.65961 4.4841,82.97314 34.59558,97.52275 C 191.53018,270.76634 108.59277,275.2865 53.679737,305.29141 31.209999,281.10697 45.434158,219.2746 37.597324,187.56677 c 0,0 73.094946,-19.2962 110.290326,-31.85563 38.6923,-13.06489 42.99416,-5.75856 42.99416,-5.75856 z"
         style="fill:#000000;stroke:none"
         id="8"
         inkscape:connector-curvature="0"
         sodipodi:nodetypes="ccccsc" />
    </g>
  </g>
</svg>
